# xmcd
# 
# Track frame offsets:
#     150
#     14489
#     27288
#     42433
#     54336
#     68756
#     81329
#     93804
#     106926
#     118746
#     131691
#     144107
#     154441
#     167190
#     179825
#     193619
# 
# Disc length: 2761
# 
# Revision: 2
# Processed by: cddbd v1.5.2PL0 Copyright (c) Steve Scherf et al.
# Submitted via: fre:ac v1.1beta1pre5
# 
DISCID=dd0ac710
DTITLE=RAY CHARLES - RAY'S BLUES
DYEAR=1953
DGENRE=Oldies
TTITLE0=RAY CHARLES - LOSING HAND
TTITLE1=RAY CHARLES - HEARTBREAKER
TTITLE2=RAY CHARLES - SINNER'S PRAYER
TTITLE3=RAY CHARLES - MESS AROUND
TTITLE4=RAY CHARLES - FUNNY BUT I STILL LOVE YOU
TTITLE5=RAY CHARLES - FEELIN' SAD
TTITLE6=RAY CHARLES - I WONDER WHO
TTITLE7=RAY CHARLES - DON'T YOU KNOW
TTITLE8=RAY CHARLES - NOBODY CARES
TTITLE9=RAY CHARLES - RAY'S BLUES
TTITLE10=RAY CHARLES - MR. CHARLIES BLUES
TTITLE11=RAY CHARLES - BLACK JACK
TTITLE12=RAY CHARLES - I GOT A WOMAN
TTITLE13=RAY CHARLES - GREENBACKS
TTITLE14=RAY CHARLES - COME BACK BABY
TTITLE15=RAY CHARLES - A FOOL FOR YOU
EXTD=4 CD Set "I got a woman", CD 2 
EXTT0=
EXTT1=
EXTT2=
EXTT3=
EXTT4=
EXTT5=
EXTT6=
EXTT7=
EXTT8=
EXTT9=
EXTT10=
EXTT11=
EXTT12=
EXTT13=
EXTT14=
EXTT15=
PLAYORDER=
